<svg width="604" height="74" viewBox="0 0 604 74" fill="none" xmlns="http://www.w3.org/2000/svg">
<path d="M197.731 0H205.811V65.5674H244.348V72.4036H197.732V0H197.731Z" fill="#2AC2D1"/>
<path d="M256.445 67.0173C251.369 62.3916 248.832 55.9342 248.832 47.648C248.832 39.3617 251.11 33.0436 255.668 28.2787C260.226 23.5128 266.717 21.1299 275.143 21.1299C280.805 21.1299 285.604 22.2181 289.541 24.3936C293.477 26.5691 296.447 29.5544 298.45 33.3523C300.452 37.1502 301.455 41.4671 301.455 46.3012V50.6512H256.29C256.566 56.315 258.656 60.5608 262.557 63.3917C266.458 66.2236 271.759 67.6386 278.458 67.6386C281.702 67.6386 284.896 67.3469 288.038 66.7587C291.181 66.1715 293.996 65.3608 296.482 64.3246V71.0576C294.41 71.8873 291.596 72.5759 288.04 73.1299C284.483 73.6811 281.013 73.9577 277.629 73.9577C268.582 73.9577 261.521 71.6448 256.445 67.0182V67.0173ZM293.996 44.9544C293.858 39.5682 292.2 35.3214 289.023 32.2139C285.847 29.1064 281.186 27.5522 275.04 27.5522C268.893 27.5522 264.438 29.1595 261.261 32.3692C258.084 35.5799 256.427 39.7747 256.29 44.9544H293.996Z" fill="#2AC2D1"/>
<path d="M314.631 69.4523C311.143 66.449 309.4 62.3234 309.4 57.0745C309.4 51.8257 311.09 47.4244 314.475 44.4894C317.859 41.5543 322.761 40.0863 329.184 40.0863C336.366 40.0863 342.548 41.5713 347.727 44.5396V40.8117C347.727 36.3234 346.449 32.9924 343.893 30.8169C341.337 28.6414 337.297 27.5532 331.774 27.5532C325.903 27.5532 320.482 28.6575 315.51 30.8671V24.1341C317.582 23.2363 320.206 22.5117 323.383 21.9595C326.559 21.4074 329.599 21.1299 332.499 21.1299C340.372 21.1299 346.207 22.9086 350.005 26.4649C353.804 30.0223 355.703 34.9416 355.703 41.2256V72.4044H348.244V65.9821C343.893 71.3001 337.437 73.9577 328.873 73.9577C322.866 73.9577 318.118 72.4556 314.631 69.4523ZM340.941 65.2055C343.945 63.7204 346.206 61.6311 347.727 58.9384V50.9628C345.033 49.3745 342.357 48.2181 339.698 47.4936C337.039 46.769 334.053 46.4054 330.739 46.4054C326.042 46.4054 322.641 47.2862 320.536 49.0468C318.43 50.8085 317.377 53.484 317.377 57.0745C317.377 63.979 321.865 67.4321 330.843 67.4321C334.571 67.4321 337.939 66.6915 340.943 65.2064L340.941 65.2055Z" fill="#2AC2D1"/>
<path d="M368.288 22.6831H376.057V32.4213C380.062 25.9298 387.555 22.6831 398.536 22.6831V29.1054C386.519 29.1054 379.094 33.0767 376.264 41.0182V72.4034H368.288V22.6831Z" fill="#2AC2D1"/>
<path d="M406.885 22.6831H414.655V30.1416C417.071 27.0342 420.023 24.7554 423.511 23.3054C426.998 21.8554 430.71 21.1299 434.648 21.1299C441.208 21.1299 446.093 22.8565 449.304 26.3096C452.515 29.7637 454.121 34.3894 454.121 40.1895V72.4044H446.145V40.9159C446.145 36.634 445.109 33.3372 443.038 31.0243C440.965 28.7115 437.651 27.5532 433.093 27.5532C425.427 27.5532 419.35 31.0073 414.86 37.9117V72.4044H406.884V22.6831H406.885Z" fill="#2AC2D1"/>
<path d="M472.02 67.0173C466.944 62.3916 464.406 55.9342 464.406 47.648C464.406 39.3617 466.684 33.0436 471.243 28.2787C475.801 23.5128 482.292 21.1299 490.718 21.1299C496.38 21.1299 501.179 22.2181 505.115 24.3936C509.052 26.5691 512.022 29.5544 514.024 33.3523C516.027 37.1502 517.03 41.4671 517.03 46.3012V50.6512H471.864C472.141 56.315 474.23 60.5608 478.132 63.3917C482.033 66.2236 487.333 67.6386 494.033 67.6386C497.277 67.6386 500.471 67.3469 503.613 66.7587C506.756 66.1715 509.571 65.3608 512.057 64.3246V71.0576C509.985 71.8873 507.171 72.5759 503.615 73.1299C500.058 73.6811 496.588 73.9577 493.204 73.9577C484.157 73.9577 477.096 71.6448 472.02 67.0182V67.0173ZM509.572 44.9544C509.434 39.5682 507.776 35.3214 504.599 32.2139C501.422 29.1064 496.761 27.5522 490.615 27.5522C484.469 27.5522 480.014 29.1595 476.837 32.3692C473.66 35.5799 472.003 39.7747 471.865 44.9544H509.572Z" fill="#2AC2D1"/>
<path d="M527.356 22.6831H535.125V32.4213C539.13 25.9298 546.623 22.6831 557.604 22.6831V29.1054C545.587 29.1054 538.162 33.0767 535.332 41.0182V72.4034H527.356V22.6831Z" fill="#2AC2D1"/>
<path d="M573.649 72.5593C569.919 71.6283 567.019 70.4718 564.949 69.09V62.357C567.572 63.9453 570.594 65.222 574.012 66.1881C577.429 67.156 580.728 67.6381 583.906 67.6381C588.188 67.6381 591.279 67.0338 593.178 65.8263C595.077 64.6178 596.026 62.8059 596.026 60.388C596.026 58.5241 595.61 57.057 594.782 55.9858C593.952 54.9165 592.572 53.9666 590.638 53.1379C588.704 52.3101 585.701 51.3421 581.625 50.2378C577.621 49.1335 574.426 47.9752 572.044 46.7667C569.662 45.5582 567.849 44.0229 566.605 42.158C565.361 40.2941 564.741 37.9112 564.741 35.0093C564.741 30.5209 566.553 27.0867 570.18 24.7038C573.804 22.3209 578.622 21.1294 584.63 21.1294C587.875 21.1294 590.931 21.423 593.797 22.0102C596.662 22.5974 599.062 23.41 600.997 24.4443V31.1773C598.993 30.0729 596.575 29.1912 593.745 28.5358C590.913 27.8804 587.978 27.5517 584.941 27.5517C580.935 27.5517 577.896 28.1389 575.825 29.3134C573.752 30.4878 572.717 32.3858 572.717 35.0083C572.717 36.804 573.079 38.1849 573.804 39.1529C574.528 40.1208 575.875 40.9997 577.843 41.7944C579.812 42.589 582.971 43.5711 587.321 44.7465C593.536 46.4731 597.87 48.4942 600.322 50.807C602.773 53.1199 604 56.3135 604 60.387C604 64.4606 602.36 67.9156 599.079 70.3317C595.798 72.7468 590.808 73.9563 584.11 73.9563C580.864 73.9563 577.376 73.4893 573.646 72.5583L573.649 72.5593Z" fill="#2AC2D1"/>
<path d="M53.8329 69.286C50.0319 66.1426 48.1328 61.9109 48.1328 56.5901C48.1328 51.2692 49.9287 46.7439 53.5222 43.6346C57.1138 40.5252 62.1584 38.9701 68.655 38.9701C75.1516 38.9701 80.3676 40.2496 84.9282 42.8049V41.4572C84.9282 37.933 83.8399 35.3786 81.6633 33.7884C79.4867 32.2001 75.9794 31.4046 71.1432 31.4046C68.1018 31.4046 65.0956 31.6991 62.1253 32.2854C59.1531 32.8735 56.5285 33.6842 54.2487 34.7213V24.4613C56.3211 23.4943 59.1019 22.6987 62.5922 22.0774C66.0806 21.4552 69.4497 21.1445 72.6984 21.1445C81.3346 21.1445 87.727 22.9942 91.8737 26.6898C96.0194 30.3874 98.0928 35.5169 98.0928 42.0813V72.4484H85.7588V67.5765C83.6163 69.6497 81.1802 71.2399 78.4515 72.3443C75.7208 73.4486 72.3887 74.0026 68.4495 74.0026C62.5051 74.0026 57.6338 72.4314 53.8348 69.287L53.8329 69.286ZM79.5379 62.7557C81.8859 61.6154 83.6836 60.0451 84.9282 58.0401V52.5469C81.1272 49.8523 76.7741 48.5046 71.8687 48.5046C64.8881 48.5046 61.3997 51.1991 61.3997 56.5882C61.3997 59.2145 62.2815 61.1835 64.0433 62.4953C65.8059 63.8089 68.3443 64.4653 71.6613 64.4653C74.5634 64.4653 77.1889 63.8951 79.5379 62.7548V62.7557Z" fill="#2AC2D1"/>
<path d="M117.027 72.7571C112.95 71.9284 109.772 70.7881 107.491 69.3371V58.2474C110.186 59.9058 113.399 61.2375 117.131 62.2376C120.863 63.2406 124.387 63.7407 127.703 63.7407C131.019 63.7407 133.437 63.448 134.958 62.8599C136.477 62.2736 137.239 61.1854 137.239 59.5952C137.239 58.3516 136.84 57.3325 136.046 56.537C135.251 55.7433 133.973 55.0178 132.211 54.3605C130.449 53.7042 127.737 52.8934 124.074 51.9245C119.929 50.7501 116.664 49.5407 114.28 48.2971C111.896 47.0536 110.098 45.4833 108.889 43.5815C107.68 41.6816 107.076 39.2125 107.076 36.1713C107.076 31.1961 109.045 27.4494 112.983 24.9253C116.921 22.4041 122.242 21.1426 128.945 21.1426C132.399 21.1426 135.837 21.4712 139.257 22.1276C142.678 22.7849 145.355 23.6998 147.29 24.8742V35.549C145.218 34.3055 142.695 33.3044 139.724 32.5439C136.752 31.7843 133.713 31.4036 130.603 31.4036C127.217 31.4036 124.66 31.7322 122.933 32.3876C121.205 33.0458 120.342 34.3055 120.342 36.1713C120.342 37.4148 120.809 38.3998 121.741 39.1253C122.674 39.8508 123.9 40.4731 125.42 40.9911C126.939 41.5092 129.704 42.2868 133.713 43.3229C137.997 44.4992 141.347 45.7769 143.766 47.1577C146.184 48.5405 147.912 50.1989 148.949 52.1329C149.985 54.0679 150.504 56.4858 150.504 59.3878C150.504 63.8098 148.62 67.352 144.855 70.0115C141.088 72.671 135.647 74.0016 128.531 74.0016C124.937 74.0016 121.102 73.5868 117.026 72.7581L117.027 72.7571Z" fill="#2AC2D1"/>
<path d="M165.97 69.4401C163.136 66.4008 161.72 62.1171 161.72 56.5888V32.6469H154.258V22.6975H161.72V7.77295H174.78V22.6975H186.7V32.6469H174.78V54.9304C174.78 58.1089 175.366 60.3716 176.541 61.7183C177.716 63.0661 179.858 63.7395 182.968 63.7395C185.108 63.7395 187.217 63.2564 189.29 62.2885V72.2379C186.318 73.4123 182.69 74.0004 178.407 74.0004C172.948 74.0004 168.802 72.4794 165.97 69.4401Z" fill="#2AC2D1"/>
<path d="M44.6435 0V11.8616H25.436L0 37.2962V21.5922C8.43258 13.1591 13.1599 8.43211 21.5934 0H44.6444H44.6435Z" fill="#2AC2D1"/>
<path d="M44.6435 24.1392V35.9998H29.4046L15.8299 49.5738V72.4464H3.9686V45.7304L25.561 24.1392H44.6435Z" fill="#2AC2D1"/>
</svg>
